<?xml version="1.0" standalone="no"?>
<!DOCTYPE svg PUBLIC "-//W3C//DTD SVG 20010904//EN"
 "http://www.w3.org/TR/2001/REC-SVG-20010904/DTD/svg10.dtd">
<svg version="1.0" xmlns="http://www.w3.org/2000/svg"
 width="472.000000pt" height="140.000000pt" viewBox="0 0 472.000000 140.000000"
 preserveAspectRatio="xMidYMid meet">

<g transform="translate(0.000000,140.000000) scale(0.100000,-0.100000)"
fill="#000000" stroke="none">
<path d="M273 1286 c-62 -20 -96 -49 -129 -108 l-29 -53 -3 -378 c-3 -322 -1
-386 13 -432 31 -109 112 -163 228 -152 114 11 199 62 241 146 31 60 35 85 38
210 l2 104 -74 -2 c-41 -1 -78 -5 -82 -7 -4 -3 -8 -46 -8 -95 0 -55 -6 -103
-14 -124 -18 -42 -66 -69 -107 -60 -59 13 -59 16 -59 397 0 240 4 355 11 372
14 29 65 50 102 41 47 -12 60 -39 65 -130 l5 -85 61 0 c105 0 104 -1 100 93
-2 44 -9 98 -14 119 -14 48 -61 103 -114 130 -51 27 -172 34 -233 14z"/>
<path d="M887 1284 c-66 -20 -130 -85 -145 -146 -15 -59 -16 -697 -2 -749 16
-56 51 -101 100 -129 39 -21 57 -24 126 -23 127 2 215 51 267 148 21 38 22 54
25 375 4 384 1 401 -64 467 -69 68 -194 92 -307 57z m176 -155 c14 -18 17 -43
17 -173 0 -83 2 -216 3 -296 2 -80 0 -163 -4 -185 -18 -100 -144 -117 -170
-23 -6 25 -9 152 -7 342 3 266 5 305 20 328 28 43 108 47 141 7z"/>
<path d="M1370 784 l0 -506 148 7 c186 8 240 19 299 58 94 64 106 125 101 502
-4 308 -7 322 -67 381 -54 52 -110 64 -307 64 l-174 0 0 -506z m350 339 c20
-26 21 -34 18 -331 l-3 -304 -28 -24 c-23 -20 -39 -24 -93 -24 l-64 0 0 355 0
355 74 0 c69 0 76 -2 96 -27z"/>
<path d="M2030 800 l0 -490 240 0 240 0 0 70 0 69 -152 3 -153 3 -3 148 -3
147 126 0 125 0 0 70 0 70 -125 0 -126 0 3 133 3 132 153 3 152 3 0 64 0 65
-240 0 -240 0 0 -490z"/>
<path d="M2620 800 l0 -490 48 0 c26 0 64 -3 85 -6 l37 -7 0 212 0 211 115 0
115 0 0 70 0 70 -115 0 -116 0 3 148 3 147 143 -2 142 -2 0 70 0 69 -230 0
-230 0 0 -490z"/>
<path d="M3170 790 c0 -275 1 -500 3 -501 12 -2 391 -28 420 -29 l37 0 0 74 0
73 -77 7 c-42 3 -97 6 -122 6 -25 0 -56 3 -68 6 l-23 6 0 429 0 429 -85 0 -85
0 0 -500z"/>
<path d="M3710 770 l0 -519 33 -5 c17 -3 58 -8 90 -11 l57 -6 0 530 0 531 -90
0 -90 0 0 -520z"/>
<path d="M3990 1286 c0 -2 41 -118 90 -257 l90 -253 -89 -252 c-119 -333 -114
-301 -49 -308 29 -4 65 -9 79 -12 27 -5 27 -4 99 212 62 186 74 214 82 194 5
-14 38 -119 73 -235 l63 -210 87 -13 c48 -8 89 -11 92 -8 3 2 -2 26 -10 53 -9
26 -52 164 -97 306 l-82 259 88 251 c48 139 89 258 92 265 3 10 -14 12 -79 10
l-83 -3 -66 -194 c-37 -107 -69 -190 -72 -185 -3 5 -33 93 -67 197 l-63 187
-89 0 c-49 0 -89 -2 -89 -4z"/>
</g>
</svg>
